<?xml version="1.0" standalone="no"?>
<!DOCTYPE svg PUBLIC "-//W3C//DTD SVG 20010904//EN"
 "http://www.w3.org/TR/2001/REC-SVG-20010904/DTD/svg10.dtd">
<svg version="1.0" xmlns="http://www.w3.org/2000/svg"
 width="128.000000pt" height="128.000000pt" viewBox="0 0 128.000000 128.000000"
 preserveAspectRatio="xMidYMid meet">
<metadata>
Created by potrace 1.11, written by Peter Selinger 2001-2013
</metadata>
<g transform="translate(0.000000,128.000000) scale(0.100000,-0.100000)"
fill="#000000" stroke="none">
<path d="M701 1240 c-136 -49 -229 -151 -266 -291 -7 -27 -12 -90 -11 -146 2
-79 8 -110 29 -161 l25 -64 -25 -28 c-21 -24 -29 -27 -50 -19 -24 9 -37 -2
-198 -163 -146 -146 -172 -176 -168 -197 6 -35 42 -83 56 -75 7 4 9 3 4 -1 -9
-10 21 -45 40 -45 7 0 13 -4 13 -9 0 -13 33 -7 38 7 2 7 10 12 18 12 8 0 13 6
11 13 -1 6 4 11 11 9 8 -1 11 2 7 8 -3 6 4 14 17 19 13 6 20 10 15 10 -4 1 12
20 35 43 24 24 47 42 53 40 5 -2 7 -1 3 3 -4 4 31 46 78 93 73 73 84 89 79
111 -4 19 2 35 20 56 13 17 24 24 25 18 0 -7 6 -13 14 -13 7 0 24 -10 37 -23
14 -12 29 -22 34 -23 26 -1 64 -17 60 -25 -3 -4 5 -8 17 -7 52 2 73 -2 59 -11
-10 -7 -7 -9 12 -8 14 1 23 5 20 10 -2 4 1 7 6 7 6 0 11 -4 11 -10 0 -5 5 -10
11 -10 5 0 7 6 3 13 -6 9 -4 9 8 -1 13 -10 17 -10 21 0 4 10 8 10 16 -2 8 -12
11 -12 17 3 5 13 10 15 19 7 9 -8 17 -6 29 5 10 10 16 12 16 5 0 -7 9 -2 20
11 10 13 19 20 20 15 0 -5 10 -1 22 10 22 19 22 19 8 0 -14 -18 -14 -19 8 -7
12 6 22 16 22 22 0 5 8 13 17 16 21 8 68 53 68 65 0 5 5 12 12 16 7 4 25 34
40 67 26 57 28 68 28 200 0 127 -2 145 -24 195 -70 156 -214 250 -383 250 -46
-1 -93 -8 -127 -20z m159 -176 c0 -8 -19 -13 -24 -6 -3 5 1 9 9 9 8 0 15 -2
15 -3z m-185 -64 c-3 -5 -12 -10 -18 -10 -7 0 -6 4 3 10 19 12 23 12 15 0z
m110 -8 c-3 -3 -11 0 -18 7 -9 10 -8 11 6 5 10 -3 15 -9 12 -12z m-160 -80
c-3 -3 -11 0 -18 7 -9 10 -8 11 6 5 10 -3 15 -9 12 -12z m55 -32 c-8 -5 -19
-10 -25 -10 -5 0 -3 5 5 10 8 5 20 10 25 10 6 0 3 -5 -5 -10z m84 -26 c3 -8 2
-12 -4 -9 -6 3 -10 10 -10 16 0 14 7 11 14 -7z m77 -7 c-10 -9 -11 -8 -5 6 3
10 9 15 12 12 3 -3 0 -11 -7 -18z m40 -84 c-12 -20 -14 -14 -5 12 4 9 9 14 11
11 3 -2 0 -13 -6 -23z m-206 -3 c-3 -5 -12 -10 -18 -10 -7 0 -6 4 3 10 19 12
23 12 15 0z m93 -25 c-3 -3 -9 2 -12 12 -6 14 -5 15 5 6 7 -7 10 -15 7 -18z
m152 -55 c8 -5 11 -10 5 -10 -5 0 -17 5 -25 10 -8 5 -10 10 -5 10 6 0 17 -5
25 -10z m-113 -33 c0 -8 -6 -14 -14 -14 -9 0 -10 4 -2 14 6 7 12 13 14 13 1 0
2 -6 2 -13z m-57 -1 c0 -2 -7 -7 -16 -10 -8 -3 -12 -2 -9 4 6 10 25 14 25 6z
m180 -10 c-7 -7 -13 -7 -20 0 -6 6 -3 10 10 10 13 0 16 -4 10 -10z"/>
<path d="M996 412 c-3 -5 1 -9 9 -9 8 0 12 4 9 9 -3 4 -7 8 -9 8 -2 0 -6 -4
-9 -8z"/>
</g>
</svg>
